{"glyphs":{"0":{"ha":825,"x_min":0,"x_max":0,"o":"m 0 485 l 0 272 b 118 75 0 190 46 126 b 375 0 183 29 276 0 b 631 75 472 0 565 29 b 750 272 704 126 750 190 l 750 485 l 750 485 l 750 486 l 750 700 b 631 894 750 783 704 843 b 375 972 565 944 472 972 b 118 894 276 972 183 944 b 0 700 46 843 0 783 l 0 486 l 0 485 z "},"1":{"ha":681,"x_min":0,"x_max":0,"o":"m 608 67 b 608 897 608 349 608 624 b 542 972 608 935 579 972 b 67 972 371 972 238 972 b 0 883 29 972 0 928 b 0 713 0 535 0 1061 b 67 624 0 668 29 624 l 133 624 b 133 67 133 438 133 253 b 200 0 133 29 164 0 l 542 0 b 608 67 579 0 608 29 z "},"2":{"ha":832,"x_min":0,"x_max":0,"o":"m 646 375 b 757 517 690 419 735 460 b 764 735 783 590 788 667 b 578 946 735 832 667 914 b 276 951 494 982 382 982 b 60 796 194 922 113 885 b 113 532 0 706 24 585 b 225 517 150 511 188 517 l 90 329 b 29 194 60 285 29 247 b 218 0 29 90 113 0 l 585 0 b 781 194 690 0 781 90 b 646 375 781 276 719 353 z "},"3":{"ha":775,"x_min":0,"x_max":0,"o":"m 4 333 b 193 36 -18 182 76 79 b 526 36 294 0 446 7 b 708 240 614 72 686 151 b 700 457 729 313 729 385 b 607 589 679 507 643 544 l 599 589 l 643 654 b 700 783 672 697 700 733 b 519 974 700 886 621 974 b 119 974 381 974 251 974 b 54 886 83 974 54 929 l 54 733 b 119 646 54 690 83 646 l 265 646 l 164 524 b 4 333 76 493 18 421 z "},"4":{"ha":829,"x_min":0,"x_max":0,"o":"m 253 67 b 325 0 253 31 281 0 l 585 0 b 653 67 624 0 653 31 l 653 231 l 689 231 b 757 296 728 231 757 260 b 757 668 757 579 757 386 b 689 735 757 704 728 735 l 653 735 l 653 897 b 585 972 653 935 624 972 b 208 972 453 972 340 972 b 140 897 171 972 140 935 l 7 296 b 81 224 0 260 36 224 l 253 224 z "},"5":{"ha":807,"x_min":0,"x_max":0,"o":"m 39 399 b 28 157 -14 331 -18 225 b 201 18 68 90 126 49 b 535 18 297 -18 453 -11 b 725 225 622 56 696 139 b 718 471 742 300 749 404 b 571 642 682 558 646 611 l 629 642 b 696 728 668 642 696 685 l 696 885 b 629 974 696 928 668 974 b 113 974 453 974 282 974 b 39 885 75 974 39 928 z "},"6":{"ha":813,"x_min":0,"x_max":0,"o":"m 263 14 b 725 247 449 -50 661 60 b 588 661 776 407 718 567 b 610 706 596 676 603 689 b 488 943 644 806 588 914 b 263 863 400 972 304 936 l 79 588 b 21 481 60 551 38 515 b 263 14 -43 285 67 72 z "},"7":{"ha":796,"x_min":0,"x_max":0,"o":"m 564 51 b 765 899 565 51 707 615 l 765 899 b 697 972 765 936 736 972 b 74 972 490 972 283 972 b 0 885 29 972 0 929 b 0 714 0 535 0 1063 b 74 624 0 669 29 624 l 193 624 l 60 68 b 133 0 60 29 96 0 l 499 0 b 564 51 535 0 558 22 z "},"8":{"ha":818,"x_min":0,"x_max":0,"o":"m 754 624 b 381 975 754 818 582 975 b 0 624 172 975 0 818 l 0 624 b 38 481 0 578 14 526 b 0 339 14 444 0 393 l 0 339 b 381 -4 0 153 172 -4 b 754 339 582 -4 754 153 l 754 339 b 718 481 754 393 740 444 b 754 624 740 526 754 578 z "},"9":{"ha":776,"x_min":0,"x_max":0,"o":"m 481 953 b 10 710 281 1018 76 908 b 149 299 -42 556 17 388 b 126 256 135 285 135 269 b 251 6 90 151 149 42 b 481 86 340 -17 435 13 l 664 372 b 722 482 685 410 707 446 b 481 953 781 681 678 893 z "},"B":{"ha":813,"x_min":0,"x_max":0,"o":"m 78 972 b 0 894 39 972 0 933 l 0 500 l 0 65 b 78 0 0 26 39 0 l 106 0 l 171 0 l 499 0 l 499 0 l 538 0 l 538 0 b 775 329 669 0 775 146 b 643 618 775 460 721 564 b 682 750 657 657 682 696 b 499 972 682 867 592 972 z "},"C":{"ha":803,"x_min":0,"x_max":0,"o":"m 67 803 b -8 488 14 714 -8 599 b 67 171 -8 375 14 260 b 369 0 125 69 222 0 b 397 1 378 0 388 0 l 399 1 b 528 26 443 4 488 13 b 632 76 567 38 600 56 b 744 211 688 114 726 158 b 747 228 744 217 747 221 b 733 281 750 246 746 264 l 650 385 l 567 488 l 567 488 l 567 488 l 650 590 l 733 693 b 747 744 744 708 750 726 b 743 767 747 753 744 758 b 632 897 724 818 685 860 b 531 946 601 917 568 935 b 369 972 482 964 428 972 b 67 803 222 972 126 904 z "},"D":{"ha":835,"x_min":0,"x_max":0,"o":"m 207 972 l 71 972 b 0 901 31 972 0 942 l 0 71 b 71 0 0 31 31 0 l 233 0 l 447 0 l 503 0 b 703 153 588 0 650 58 b 781 488 750 240 781 358 b 703 819 781 614 750 732 b 503 972 650 914 588 972 l 233 972 z "},"Ð":{"ha":956,"x_min":0,"x_max":0,"o":"m 457 974 l 183 974 b 114 904 144 974 114 943 l 114 740 l 69 740 b 0 672 31 740 0 710 l 0 619 l 0 619 l 0 486 l 0 354 l 0 354 l 0 301 b 69 233 0 264 31 233 l 114 233 l 114 69 b 183 0 114 31 144 0 l 347 0 l 561 0 l 617 0 b 818 154 701 0 764 58 b 894 486 865 240 894 358 b 818 819 894 615 865 733 b 617 974 764 915 701 974 l 457 974 z "},"E":{"ha":838,"x_min":0,"x_max":0,"o":"m 508 903 b 439 972 508 942 478 972 l 306 972 l 69 972 b 0 903 32 972 0 942 l 0 858 l 0 607 l 0 115 l 0 69 b 69 0 0 31 32 0 l 306 0 l 439 0 l 440 0 l 643 0 l 689 0 b 758 69 728 0 758 31 l 758 203 l 758 506 b 689 576 758 544 728 576 l 642 576 l 642 722 b 572 792 642 761 611 792 l 529 792 l 508 792 l 508 858 z "},"F":{"ha":854,"x_min":0,"x_max":0,"o":"m 551 235 l 599 235 b 668 306 638 235 668 267 l 668 400 l 713 400 b 782 468 751 400 782 431 l 782 601 l 782 906 b 713 974 782 943 751 974 l 665 974 l 439 974 l 307 974 l 69 974 b 0 906 31 974 0 943 l 0 857 l 0 607 l 0 468 l 0 117 l 0 69 b 69 0 0 31 31 0 l 307 0 l 439 0 b 508 69 478 0 508 31 l 508 117 l 508 235 z "},"G":{"ha":904,"x_min":0,"x_max":0,"o":"m 707 572 b 707 901 707 681 707 794 b 636 972 707 940 675 972 b 407 972 560 972 483 972 b 0 465 124 965 0 713 b 385 -3 0 215 104 -3 l 433 -3 b 503 -94 433 -54 465 -94 l 754 -94 b 824 -3 793 -94 824 -54 b 824 501 824 163 824 336 b 754 572 824 540 793 572 l 717 572 z "},"H":{"ha":989,"x_min":0,"x_max":0,"o":"m 68 971 b 0 901 31 971 0 939 b 0 68 0 624 0 347 b 68 0 0 31 31 0 l 313 0 b 382 68 351 0 382 31 l 382 68 l 382 85 l 524 85 l 524 68 l 524 68 b 593 0 524 31 554 0 l 840 0 b 910 68 879 0 910 31 b 910 901 910 347 910 624 b 840 971 910 939 879 971 l 593 971 b 524 901 554 971 524 939 l 524 886 l 397 886 l 397 901 b 328 971 397 939 367 971 z "},"I":{"ha":575,"x_min":0,"x_max":0,"o":"m 506 904 b 436 974 506 942 475 974 l 304 974 l 68 974 b -1 904 29 974 -1 942 l -1 857 l -1 607 l -1 118 l -1 71 b 68 1 -1 32 29 1 l 304 1 l 436 1 b 506 71 475 1 506 32 l 506 118 l 506 607 l 506 857 z "},"J":{"ha":815,"x_min":0,"x_max":0,"o":"m 743 904 b 675 972 743 942 713 971 l 379 972 b 311 904 342 972 311 942 l 311 564 l 61 564 b -7 496 24 564 -7 533 b -7 272 -7 399 -7 368 b 113 75 -7 188 39 128 b 368 0 179 29 269 0 b 625 75 468 0 558 29 b 743 272 697 128 743 188 z "},"K":{"ha":811,"x_min":0,"x_max":0,"o":"m 694 0 b 764 69 733 0 764 31 b 751 110 764 85 758 99 l 515 500 l 751 865 b 732 961 772 897 764 939 b 694 971 721 968 707 971 l 694 972 l 68 972 b -1 903 29 972 -1 940 l -1 69 b 68 0 -1 31 29 0 z "},"L":{"ha":846,"x_min":0,"x_max":0,"o":"m 69 971 b 0 903 31 971 0 940 l 0 117 l 0 69 l 0 69 l 0 67 l 0 67 l 0 65 l 0 65 l 0 63 l 0 63 l 0 63 l 0 63 l 0 60 l 0 60 l 0 58 l 0 58 b 69 0 6 25 33 0 b 696 0 278 0 486 0 b 765 68 733 0 765 31 b 772 288 769 106 772 189 b 765 507 772 385 769 468 b 696 575 765 544 733 575 l 440 575 l 440 903 b 371 971 440 940 410 971 b 69 971 271 971 169 971 z "},"M":{"ha":1011,"x_min":0,"x_max":0,"o":"m 872 971 b 860 969 868 971 864 971 l 471 843 l 82 969 b 68 971 76 969 72 971 b 0 903 31 971 0 939 b 0 68 0 625 0 347 b 68 0 0 31 31 0 l 300 0 b 367 68 336 0 367 31 l 367 118 l 469 58 l 569 118 l 569 68 b 638 0 569 31 600 0 l 872 0 b 939 68 910 0 939 31 b 939 903 939 347 939 625 b 872 971 939 939 910 971 z "},"N":{"ha":1015,"x_min":0,"x_max":0,"o":"m 301 0 b 371 69 340 0 371 31 l 371 82 l 371 118 l 854 1 b 867 0 860 0 863 0 b 938 69 906 0 938 31 l 938 669 l 938 886 l 938 890 l 938 903 b 867 972 938 940 906 972 l 653 972 l 636 972 b 565 903 597 972 565 940 l 565 890 l 565 854 b 82 971 440 879 204 946 b 69 972 78 971 74 972 b 0 903 31 972 0 940 l 0 300 l 0 85 l 0 82 l 0 69 b 69 0 0 31 31 0 l 285 0 z "},"a":{"ha":817,"x_min":0,"x_max":0,"o":"m 751 728 b 636 894 751 819 700 846 b 375 972 571 946 479 972 b 115 894 285 972 193 946 b 0 700 51 842 0 792 l 0 65 b 78 0 0 26 39 0 l 686 0 b 751 65 725 0 751 26 z "},"c":{"ha":803,"x_min":0,"x_max":0,"o":"m 67 803 b -8 488 14 714 -8 599 b 67 171 -8 375 14 260 b 369 0 125 69 222 0 b 397 1 378 0 388 0 l 399 1 b 528 26 443 4 488 13 b 632 76 567 38 600 56 b 744 211 688 114 726 158 b 747 228 744 217 747 221 b 733 281 750 246 746 264 l 650 385 l 567 488 l 567 488 l 567 488 l 650 590 l 733 693 b 747 744 744 708 750 726 b 743 767 747 753 744 758 b 632 897 724 818 685 860 b 531 946 601 917 568 935 b 369 972 482 964 428 972 b 67 803 222 972 126 904 z "},"d":{"ha":835,"x_min":0,"x_max":0,"o":"m 207 972 l 71 972 b 0 901 31 972 0 942 l 0 71 b 71 0 0 31 31 0 l 233 0 l 447 0 l 503 0 b 703 153 588 0 650 58 b 781 488 750 240 781 358 b 703 819 781 614 750 732 b 503 972 650 914 588 972 l 233 972 z "},"e":{"ha":838,"x_min":0,"x_max":0,"o":"m 508 903 b 439 972 508 942 478 972 l 306 972 l 69 972 b 0 903 32 972 0 942 l 0 858 l 0 607 l 0 115 l 0 69 b 69 0 0 31 32 0 l 306 0 l 439 0 l 440 0 l 643 0 l 689 0 b 758 69 728 0 758 31 l 758 203 l 758 506 b 689 576 758 544 728 576 l 642 576 l 642 722 b 572 792 642 761 611 792 l 529 792 l 508 792 l 508 858 z "},"O":{"ha":825,"x_min":0,"x_max":0,"o":"m 0 485 l 0 272 b 118 75 0 190 46 126 b 375 0 183 29 276 0 b 631 75 472 0 565 29 b 750 272 704 126 750 190 l 750 485 l 750 485 l 750 486 l 750 700 b 631 894 750 783 704 843 b 375 972 565 944 472 972 b 118 894 276 972 183 944 b 0 700 46 843 0 783 l 0 486 l 0 485 z "},"P":{"ha":829,"x_min":0,"x_max":0,"o":"m 374 0 b 440 69 411 0 440 32 l 440 274 l 501 274 b 701 385 586 274 649 317 b 779 624 750 446 779 531 b 701 861 779 715 750 799 b 501 972 649 929 586 972 b 69 972 357 972 213 972 b 0 901 32 972 0 940 b 0 69 0 625 0 347 b 69 0 0 32 32 0 b 374 0 171 0 272 0 z "},"R":{"ha":829,"x_min":0,"x_max":0,"o":"m 69 0 b 699 0 279 0 489 0 b 767 81 742 0 778 40 l 656 372 b 665 385 658 378 661 381 b 743 624 714 447 743 532 b 665 861 743 715 714 800 b 465 972 613 931 550 972 l 233 972 l 233 972 l 69 972 b 0 922 32 972 0 951 l 0 485 l 0 69 b 69 0 0 31 32 0 z "},"S":{"ha":878,"x_min":0,"x_max":0,"o":"m 713 603 b 811 776 771 628 811 697 b 689 960 811 868 758 944 b 464 985 647 975 561 985 b 222 953 350 985 253 971 b 3 603 94 911 3 786 b 100 371 3 525 42 440 b 3 194 43 343 3 276 b 125 11 3 103 56 26 b 350 -12 167 -3 251 -12 b 592 19 464 -12 560 1 b 811 371 718 61 811 186 b 713 603 811 447 772 532 z "}," ":{"ha":563,"x_min":0,"x_max":0,"o":""},"T":{"ha":832,"x_min":0,"x_max":0,"o":"m 764 901 b 696 972 764 942 735 972 b 69 972 488 972 279 972 b 0 901 31 972 0 942 l 0 185 b 69 117 0 147 31 117 l 129 117 l 129 58 b 199 0 129 19 160 0 b 567 0 322 0 443 0 b 636 58 606 0 636 19 l 636 117 l 696 117 b 764 185 735 117 764 147 z "},"U":{"ha":822,"x_min":0,"x_max":0,"o":"m 750 906 b 683 972 750 943 719 972 l 68 972 b 0 906 29 972 0 943 l 0 272 b 119 76 0 189 46 129 b 375 0 185 29 275 0 b 632 76 474 0 564 29 b 750 272 704 129 750 189 z "},"V":{"ha":886,"x_min":0,"x_max":0,"o":"m 739 975 b 731 975 739 975 731 975 l 510 917 b 294 917 415 894 385 894 b 81 975 221 938 156 954 b 67 975 74 975 74 975 b 0 908 29 975 0 947 b 0 163 0 638 0 446 b 44 104 0 135 22 113 l 294 15 b 517 24 399 -14 415 -14 b 753 96 597 46 681 75 b 813 163 783 113 813 135 b 813 908 813 446 813 638 b 739 975 813 947 776 975 z "},"Z":{"ha":835,"x_min":0,"x_max":0,"o":"m 0 69 b 69 0 0 31 32 0 b 696 0 347 0 418 0 b 765 69 735 0 765 31 l 765 285 b 696 354 765 324 735 354 l 656 354 l 750 903 b 681 971 750 942 719 971 b 69 971 404 971 347 971 b 0 903 32 971 0 942 l 0 688 b 69 617 0 649 31 617 l 100 617 z "},"f":{"ha":854,"x_min":0,"x_max":0,"o":"m 551 235 l 599 235 b 668 306 638 235 668 267 l 668 400 l 713 400 b 782 468 751 400 782 431 l 782 601 l 782 906 b 713 974 782 943 751 974 l 665 974 l 439 974 l 307 974 l 69 974 b 0 906 31 974 0 943 l 0 857 l 0 607 l 0 468 l 0 117 l 0 69 b 69 0 0 31 31 0 l 307 0 l 439 0 b 508 69 478 0 508 31 l 508 117 l 508 235 z "},"g":{"ha":904,"x_min":0,"x_max":0,"o":"m 707 572 b 707 901 707 681 707 794 b 636 972 707 940 675 972 b 407 972 560 972 483 972 b 0 465 124 965 0 713 b 385 -3 0 215 104 -3 l 433 -3 b 503 -94 433 -54 465 -94 l 754 -94 b 824 -3 793 -94 824 -54 b 824 501 824 163 824 336 b 754 572 824 540 793 572 l 717 572 z "},"h":{"ha":989,"x_min":0,"x_max":0,"o":"m 68 971 b 0 901 31 971 0 939 b 0 68 0 624 0 347 b 68 0 0 31 31 0 l 313 0 b 382 68 351 0 382 31 l 382 68 l 382 85 l 524 85 l 524 68 l 524 68 b 593 0 524 31 554 0 l 840 0 b 910 68 879 0 910 31 b 910 901 910 347 910 624 b 840 971 910 939 879 971 l 593 971 b 524 901 554 971 524 939 l 524 886 l 397 886 l 397 901 b 328 971 397 939 367 971 z "},"i":{"ha":575,"x_min":0,"x_max":0,"o":"m 506 904 b 436 974 506 942 475 974 l 304 974 l 68 974 b -1 904 29 974 -1 942 l -1 857 l -1 607 l -1 118 l -1 71 b 68 1 -1 32 29 1 l 304 1 l 436 1 b 506 71 475 1 506 32 l 506 118 l 506 607 l 506 857 z "},"j":{"ha":815,"x_min":0,"x_max":0,"o":"m 743 904 b 675 972 743 942 713 971 l 379 972 b 311 904 342 972 311 942 l 311 564 l 61 564 b -7 496 24 564 -7 533 b -7 272 -7 399 -7 368 b 113 75 -7 188 39 128 b 368 0 179 29 269 0 b 625 75 468 0 558 29 b 743 272 697 128 743 188 z "},"k":{"ha":811,"x_min":0,"x_max":0,"o":"m 694 0 b 764 69 733 0 764 31 b 751 110 764 85 758 99 l 515 500 l 751 865 b 732 961 772 897 764 939 b 694 971 721 968 707 971 l 694 972 l 68 972 b -1 903 29 972 -1 940 l -1 69 b 68 0 -1 31 29 0 z "},"l":{"ha":846,"x_min":0,"x_max":0,"o":"m 69 971 b 0 903 31 971 0 940 l 0 117 l 0 69 l 0 69 l 0 67 l 0 67 l 0 65 l 0 65 l 0 63 l 0 63 l 0 63 l 0 63 l 0 60 l 0 60 l 0 58 l 0 58 b 69 0 6 25 33 0 b 696 0 278 0 486 0 b 765 68 733 0 765 31 b 772 288 769 106 772 189 b 765 507 772 385 769 468 b 696 575 765 544 733 575 l 440 575 l 440 903 b 371 971 440 940 410 971 b 69 971 271 971 169 971 z "},"m":{"ha":1011,"x_min":0,"x_max":0,"o":"m 872 971 b 860 969 868 971 864 971 l 471 843 l 82 969 b 68 971 76 969 72 971 b 0 903 31 971 0 939 b 0 68 0 625 0 347 b 68 0 0 31 31 0 l 300 0 b 367 68 336 0 367 31 l 367 118 l 469 58 l 569 118 l 569 68 b 638 0 569 31 600 0 l 872 0 b 939 68 910 0 939 31 b 939 903 939 347 939 625 b 872 971 939 939 910 971 z "},"n":{"ha":1015,"x_min":0,"x_max":0,"o":"m 301 0 b 371 69 340 0 371 31 l 371 82 l 371 118 l 854 1 b 867 0 860 0 863 0 b 938 69 906 0 938 31 l 938 669 l 938 886 l 938 890 l 938 903 b 867 972 938 940 906 972 l 653 972 l 636 972 b 565 903 597 972 565 940 l 565 890 l 565 854 b 82 971 440 879 204 946 b 69 972 78 971 74 972 b 0 903 31 972 0 940 l 0 300 l 0 85 l 0 82 l 0 69 b 69 0 0 31 31 0 l 285 0 z "},"o":{"ha":825,"x_min":0,"x_max":0,"o":"m 0 485 l 0 272 b 118 75 0 190 46 126 b 375 0 183 29 276 0 b 631 75 472 0 565 29 b 750 272 704 126 750 190 l 750 485 l 750 485 l 750 486 l 750 700 b 631 894 750 783 704 843 b 375 972 565 944 472 972 b 118 894 276 972 183 944 b 0 700 46 843 0 783 l 0 486 l 0 485 z "},"p":{"ha":829,"x_min":0,"x_max":0,"o":"m 374 0 b 440 69 411 0 440 32 l 440 274 l 501 274 b 701 385 586 274 649 317 b 779 624 750 446 779 531 b 701 861 779 715 750 799 b 501 972 649 929 586 972 b 69 972 357 972 213 972 b 0 901 32 972 0 940 b 0 69 0 625 0 347 b 69 0 0 32 32 0 b 374 0 171 0 272 0 z "},"r":{"ha":829,"x_min":0,"x_max":0,"o":"m 69 0 b 699 0 279 0 489 0 b 767 81 742 0 778 40 l 656 372 b 665 385 658 378 661 381 b 743 624 714 447 743 532 b 665 861 743 715 714 800 b 465 972 613 931 550 972 l 233 972 l 233 972 l 69 972 b 0 922 32 972 0 951 l 0 485 l 0 69 b 69 0 0 31 32 0 z "},"s":{"ha":878,"x_min":0,"x_max":0,"o":"m 713 603 b 811 776 771 628 811 697 b 689 960 811 868 758 944 b 464 985 647 975 561 985 b 222 953 350 985 253 971 b 3 603 94 911 3 786 b 100 371 3 525 42 440 b 3 194 43 343 3 276 b 125 11 3 103 56 26 b 350 -12 167 -3 251 -12 b 592 19 464 -12 560 1 b 811 371 718 61 811 186 b 713 603 811 447 772 532 z "},"t":{"ha":832,"x_min":0,"x_max":0,"o":"m 764 901 b 696 972 764 942 735 972 b 69 972 488 972 279 972 b 0 901 31 972 0 942 l 0 185 b 69 117 0 147 31 117 l 129 117 l 129 58 b 199 0 129 19 160 0 b 567 0 322 0 443 0 b 636 58 606 0 636 19 l 636 117 l 696 117 b 764 185 735 117 764 147 z "},"u":{"ha":822,"x_min":0,"x_max":0,"o":"m 750 906 b 683 972 750 943 719 972 l 68 972 b 0 906 29 972 0 943 l 0 272 b 119 76 0 189 46 129 b 375 0 185 29 275 0 b 632 76 474 0 564 29 b 750 272 704 129 750 189 z "},"v":{"ha":886,"x_min":0,"x_max":0,"o":"m 739 975 b 731 975 739 975 731 975 l 510 917 b 294 917 415 894 385 894 b 81 975 221 938 156 954 b 67 975 74 975 74 975 b 0 908 29 975 0 947 b 0 163 0 638 0 446 b 44 104 0 135 22 113 l 294 15 b 517 24 399 -14 415 -14 b 753 96 597 46 681 75 b 813 163 783 113 813 135 b 813 908 813 446 813 638 b 739 975 813 947 776 975 z "},"z":{"ha":835,"x_min":0,"x_max":0,"o":"m 0 69 b 69 0 0 31 32 0 b 696 0 347 0 418 0 b 765 69 735 0 765 31 l 765 285 b 696 354 765 324 735 354 l 656 354 l 750 903 b 681 971 750 942 719 971 b 69 971 404 971 347 971 b 0 903 32 971 0 942 l 0 688 b 69 617 0 649 31 617 l 100 617 z "},"ð":{"ha":956,"x_min":0,"x_max":0,"o":"m 457 974 l 183 974 b 114 904 144 974 114 943 l 114 740 l 69 740 b 0 672 31 740 0 710 l 0 619 l 0 619 l 0 486 l 0 354 l 0 354 l 0 301 b 69 233 0 264 31 233 l 114 233 l 114 69 b 183 0 114 31 144 0 l 347 0 l 561 0 l 617 0 b 818 154 701 0 764 58 b 894 486 865 240 894 358 b 818 819 894 615 865 733 b 617 974 764 915 701 974 l 457 974 z "},"Š":{"ha":857,"x_min":0,"x_max":0,"o":"m 208 944 b 0 597 88 894 0 775 b 96 372 0 525 39 438 b 0 197 39 342 0 276 b 119 19 0 107 57 35 b 346 -4 161 4 250 -4 b 578 19 458 -4 554 4 b 794 372 707 68 794 189 b 699 597 794 446 763 533 b 794 775 756 621 794 694 b 675 951 794 863 744 932 b 610 967 651 958 633 961 l 642 1111 b 578 1175 642 1143 610 1175 b 232 1175 467 1175 353 1175 b 169 1111 201 1175 169 1143 z "},"š":{"ha":857,"x_min":0,"x_max":0,"o":"m 208 944 b 0 597 88 894 0 775 b 96 372 0 525 39 438 b 0 197 39 342 0 276 b 119 19 0 107 57 35 b 346 -4 161 4 250 -4 b 578 19 458 -4 554 4 b 794 372 707 68 794 189 b 699 597 794 446 763 533 b 794 775 756 621 794 694 b 675 951 794 863 744 932 b 610 967 651 958 633 961 l 642 1111 b 578 1175 642 1143 610 1175 b 232 1175 467 1175 353 1175 b 169 1111 201 1175 169 1143 z "},"Č":{"ha":807,"x_min":0,"x_max":0,"o":"m 74 814 b 0 489 17 724 0 600 b 74 168 0 372 17 257 b 383 -4 133 63 236 -4 b 654 69 475 -4 575 19 b 769 207 711 111 753 153 b 753 281 774 229 779 249 l 589 496 l 753 699 b 769 774 776 724 775 754 b 589 946 736 849 668 915 l 636 1133 b 567 1200 636 1168 604 1200 b 219 1200 450 1200 335 1200 b 157 1133 182 1200 157 1168 l 194 946 b 74 814 149 914 106 864 z "},"č":{"ha":807,"x_min":0,"x_max":0,"o":"m 74 814 b 0 489 17 724 0 600 b 74 168 0 372 17 257 b 383 -4 133 63 236 -4 b 654 69 475 -4 575 19 b 769 207 711 111 753 153 b 753 281 774 229 779 249 l 589 496 l 753 699 b 769 774 776 724 775 754 b 589 946 736 849 668 915 l 636 1133 b 567 1200 636 1168 604 1200 b 219 1200 450 1200 335 1200 b 157 1133 182 1200 157 1168 l 194 946 b 74 814 149 914 106 864 z "},"Ć":{"ha":813,"x_min":0,"x_max":0,"o":"m 583 1203 b 328 1203 503 1203 419 1203 b 264 1138 297 1203 264 1171 l 222 957 b 74 817 156 922 106 875 b 0 489 25 725 0 603 b 74 168 0 372 25 258 b 386 -6 139 60 239 -6 b 658 68 478 -6 576 19 b 774 208 714 108 757 150 b 757 282 779 229 781 253 l 593 497 l 757 700 b 774 775 778 724 781 754 b 600 947 738 851 678 911 l 658 1138 b 583 1203 658 1171 625 1203 z "},"ć":{"ha":813,"x_min":0,"x_max":0,"o":"m 583 1203 b 328 1203 503 1203 419 1203 b 264 1138 297 1203 264 1171 l 222 957 b 74 817 156 922 106 875 b 0 489 25 725 0 603 b 74 168 0 372 25 258 b 386 -6 139 60 239 -6 b 658 68 478 -6 576 19 b 774 208 714 108 757 150 b 757 282 779 229 781 253 l 593 497 l 757 700 b 774 775 778 724 781 754 b 600 947 738 851 678 911 l 658 1138 b 583 1203 658 1171 625 1203 z "},"Ž":{"ha":835,"x_min":0,"x_max":0,"o":"m 0 82 b 0 67 0 74 0 74 b 74 0 0 25 32 0 b 704 0 351 0 426 0 b 768 67 736 0 768 25 l 768 286 b 704 351 768 319 736 351 l 663 351 l 753 892 b 753 900 753 892 753 900 b 688 974 753 940 729 974 l 589 974 l 631 1128 b 557 1194 631 1163 596 1194 b 213 1194 442 1194 328 1194 b 139 1128 172 1194 139 1163 l 181 974 l 74 974 b 0 900 32 974 0 940 l 0 688 b 74 614 0 646 32 614 l 99 614 z "},"ž":{"ha":835,"x_min":0,"x_max":0,"o":"m 0 82 b 0 67 0 74 0 74 b 74 0 0 25 32 0 b 704 0 351 0 426 0 b 768 67 736 0 768 25 l 768 286 b 704 351 768 319 736 351 l 663 351 l 753 892 b 753 900 753 892 753 900 b 688 974 753 940 729 974 l 589 974 l 631 1128 b 557 1194 631 1163 596 1194 b 213 1194 442 1194 328 1194 b 139 1128 172 1194 139 1163 l 181 974 l 74 974 b 0 900 32 974 0 940 l 0 688 b 74 614 0 646 32 614 l 99 614 z "},"A":{"ha":817,"x_min":0,"x_max":0,"o":"m 751 728 b 636 894 751 819 700 846 b 375 972 571 946 479 972 b 115 894 285 972 193 946 b 0 700 51 842 0 792 l 0 65 b 78 0 0 26 39 0 l 686 0 b 751 65 725 0 751 26 z "},"Q":{"ha":835,"x_min":0,"x_max":0,"o":"m 0 271 b 118 72 0 189 43 124 b 339 -1 176 35 250 6 l 339 -10 b 413 -83 339 -47 376 -83 l 671 -83 b 744 -10 708 -83 744 -47 l 708 139 b 760 271 738 175 760 219 b 760 707 760 418 760 558 b 635 906 760 786 708 853 b 376 979 568 949 479 979 b 118 906 281 979 183 949 b 0 707 43 853 0 786 b 0 271 0 558 0 418 z "},"q":{"ha":835,"x_min":0,"x_max":0,"o":"m 0 271 b 118 72 0 189 43 124 b 339 -1 176 35 250 6 l 339 -10 b 413 -83 339 -47 376 -83 l 671 -83 b 744 -10 708 -83 744 -47 l 708 139 b 760 271 738 175 760 219 b 760 707 760 418 760 558 b 635 906 760 786 708 853 b 376 979 568 949 479 979 b 118 906 281 979 183 949 b 0 707 43 853 0 786 b 0 271 0 558 0 418 z "},"W":{"ha":947,"x_min":0,"x_max":0,"o":"m 479 40 b 539 8 494 32 515 19 b 656 18 594 -18 594 -11 b 844 122 831 115 838 118 b 874 171 863 133 874 150 b 874 907 874 449 874 638 b 807 971 874 943 844 971 b 783 965 799 971 794 969 b 656 907 758 957 714 932 b 546 906 597 885 594 883 b 467 938 513 918 494 926 b 393 936 436 949 421 949 b 342 914 368 925 365 922 b 211 914 276 885 268 885 l 94 964 b 65 971 79 971 74 971 b 0 907 28 971 0 943 b 0 171 0 638 0 449 b 26 124 0 151 10 135 b 219 10 92 83 160 46 b 328 10 276 -18 272 -14 b 393 40 353 21 371 31 b 479 40 436 63 436 63 z "},"w":{"ha":947,"x_min":0,"x_max":0,"o":"m 479 40 b 539 8 494 32 515 19 b 656 18 594 -18 594 -11 b 844 122 831 115 838 118 b 874 171 863 133 874 150 b 874 907 874 449 874 638 b 807 971 874 943 844 971 b 783 965 799 971 794 969 b 656 907 758 957 714 932 b 546 906 597 885 594 883 b 467 938 513 918 494 926 b 393 936 436 949 421 949 b 342 914 368 925 365 922 b 211 914 276 885 268 885 l 94 964 b 65 971 79 971 74 971 b 0 907 28 971 0 943 b 0 171 0 638 0 449 b 26 124 0 151 10 135 b 219 10 92 83 160 46 b 328 10 276 -18 272 -14 b 393 40 353 21 371 31 b 479 40 436 63 436 63 z "},"X":{"ha":786,"x_min":0,"x_max":0,"o":"m 67 0 b 689 0 274 0 482 0 b 756 67 726 0 756 29 l 756 82 b 644 504 726 222 682 363 b 749 882 682 631 719 756 l 749 897 b 675 971 749 933 719 971 b 82 971 482 971 282 971 b 15 897 44 971 15 933 l 15 882 b 118 504 44 764 82 631 b 0 82 74 363 29 222 l 0 67 b 67 0 0 29 29 0 z "},"x":{"ha":786,"x_min":0,"x_max":0,"o":"m 67 0 b 689 0 274 0 482 0 b 756 67 726 0 756 29 l 756 82 b 644 504 726 222 682 363 b 749 882 682 631 719 756 l 749 897 b 675 971 749 933 719 971 b 82 971 482 971 282 971 b 15 897 44 971 15 933 l 15 882 b 118 504 44 764 82 631 b 0 82 74 363 29 222 l 0 67 b 67 0 0 29 29 0 z "},"Y":{"ha":763,"x_min":0,"x_max":0,"o":"m 147 74 l 147 74 l 147 74 l 147 74 l 147 74 l 147 74 l 147 74 l 147 74 b 214 0 147 38 175 0 l 214 0 l 479 0 l 517 0 b 583 67 553 0 583 29 l 583 118 l 583 272 b 731 885 619 399 701 767 l 731 900 b 664 974 731 944 701 974 b 67 974 465 974 265 974 b 0 900 29 974 0 944 l 0 885 b 147 272 29 767 111 399 z "},"y":{"ha":763,"x_min":0,"x_max":0,"o":"m 147 74 l 147 74 l 147 74 l 147 74 l 147 74 l 147 74 l 147 74 l 147 74 b 214 0 147 38 175 0 l 214 0 l 479 0 l 517 0 b 583 67 553 0 583 29 l 583 118 l 583 272 b 731 885 619 399 701 767 l 731 900 b 664 974 731 944 701 974 b 67 974 465 974 265 974 b 0 900 29 974 0 944 l 0 885 b 147 272 29 767 111 399 z "},"/":{"ha":644,"x_min":0,"x_max":0,"o":"m 604 921 b 538 994 604 964 574 994 l 271 994 b 210 949 244 994 219 976 b 0 38 207 940 206 931 b 1 22 0 32 0 26 b 74 -29 10 -7 42 -29 l 332 -29 b 401 19 363 -29 392 -8 z "},"(":{"ha":454,"x_min":0,"x_max":0,"o":"m 224 997 b 49 893 136 997 64 951 b 49 75 -18 650 -10 353 b 224 -29 64 15 136 -29 b 401 89 321 -29 401 21 b 401 878 343 332 343 635 b 224 997 401 943 321 997 z "},")":{"ha":464,"x_min":0,"x_max":0,"o":"m 175 997 b 0 878 81 997 0 943 b 0 89 60 635 60 332 b 175 -29 0 21 81 -29 b 353 75 264 -29 339 15 b 353 893 413 353 413 650 b 175 997 339 951 264 997 z "},"+":{"ha":831,"x_min":0,"x_max":0,"o":"m 758 339 b 758 471 758 618 758 199 b 692 546 758 515 729 546 l 515 546 l 515 714 b 449 788 515 757 486 788 b 310 788 169 788 589 788 b 244 714 274 788 244 757 l 244 546 l 67 546 b 0 471 31 546 0 515 b 0 339 0 199 0 618 b 67 272 0 303 31 272 l 244 272 l 244 96 b 310 31 244 61 274 31 b 449 31 589 31 169 31 b 515 96 486 31 515 61 l 515 272 l 692 272 b 758 339 729 272 758 303 z "},"!":{"ha":474,"x_min":0,"x_max":0,"o":"m 282 275 b 67 275 163 275 185 275 b 0 208 29 275 0 246 b 0 67 0 163 0 113 b 67 0 0 31 29 0 b 282 0 185 0 163 0 b 357 67 319 0 357 31 l 357 208 b 282 275 357 246 319 275 z m 349 974 b 67 974 231 974 185 974 b 0 899 29 974 0 936 l 0 429 b 51 378 0 400 21 378 l 265 378 b 371 453 303 378 349 424 b 415 615 400 497 415 549 l 415 899 b 349 974 415 936 385 974 z "},".":{"ha":419,"x_min":0,"x_max":0,"o":"m 282 275 b 67 275 163 275 185 275 b 0 208 29 275 0 246 b 0 67 0 163 0 113 b 67 0 0 31 29 0 b 282 0 185 0 163 0 b 357 67 319 0 357 31 l 357 208 b 282 275 357 246 319 275 z "},",":{"ha":403,"x_min":0,"x_max":0,"o":"m 281 272 l 281 272 l 65 272 b 0 206 29 272 0 242 b 0 65 0 160 0 110 b 51 0 0 36 24 13 l 51 -157 b 103 -207 51 -186 72 -207 l 199 -207 b 303 -135 242 -207 281 -164 b 353 19 332 -96 353 -37 l 353 65 b 353 65 353 65 353 65 l 353 206 b 281 272 353 242 318 272 z "},"?":{"ha":671,"x_min":0,"x_max":0,"o":"m 140 446 b 208 379 140 410 171 379 l 438 379 b 571 476 489 379 549 438 b 631 676 608 526 631 593 b 571 876 631 749 608 824 b 415 972 526 935 482 972 b 74 972 267 972 222 972 b 0 882 38 972 0 928 b 0 713 0 533 0 1061 b 74 624 0 668 38 624 l 140 624 z m 422 275 b 208 275 304 275 325 275 b 140 208 171 275 140 246 b 140 67 140 164 140 113 b 208 0 140 29 171 0 b 422 0 325 0 304 0 b 497 67 460 0 497 29 l 497 208 b 422 275 497 246 460 275 z "},"–":{"ha":832,"x_min":0,"x_max":0,"o":"m 758 340 b 758 471 758 618 758 200 b 685 544 758 517 722 544 l 65 544 b 0 471 29 544 0 517 b 0 340 0 200 0 618 b 65 274 0 303 29 274 l 685 274 b 758 340 722 274 758 303 z "},"—":{"ha":1075,"x_min":0,"x_max":0,"o":"m 1001 340 b 1001 471 1001 618 1001 200 b 928 544 1001 517 965 544 l 65 544 b 0 471 29 544 0 517 b 0 340 0 200 0 618 b 65 274 0 303 29 274 l 928 274 b 1001 340 965 274 1001 303 z "},"“":{"ha":756,"x_min":0,"x_max":0,"o":"m 449 494 b 613 494 560 494 493 494 b 678 560 649 494 678 524 l 678 922 b 625 972 678 951 656 972 l 529 972 b 428 897 486 972 449 929 b 375 744 399 856 375 801 l 375 560 b 449 494 375 524 406 494 z m 75 494 b 236 494 192 494 118 494 b 303 560 271 494 303 524 l 303 922 b 250 972 303 951 279 972 l 154 972 b 50 897 110 972 75 929 b 0 744 22 856 0 801 l 0 560 b 75 494 0 524 38 494 z "},"”":{"ha":756,"x_min":0,"x_max":0,"o":"m 229 972 b 65 972 118 972 185 972 b 0 907 29 972 0 943 l 0 544 b 53 494 0 515 22 494 l 149 494 b 250 569 192 494 229 538 b 303 722 279 611 303 665 l 303 907 b 229 972 303 943 272 972 z m 603 972 b 442 972 486 972 560 972 b 375 907 407 972 375 943 l 375 544 b 428 494 375 515 399 494 l 524 494 b 628 569 568 494 603 538 b 678 722 656 611 678 665 l 678 907 b 603 972 678 943 640 972 z "},";":{"ha":425,"x_min":0,"x_max":0,"o":"m 74 272 b 0 207 31 272 0 244 b 0 67 0 163 0 111 b 51 0 0 38 22 15 l 51 -156 b 104 -207 51 -183 74 -207 l 207 -207 b 303 -133 244 -207 289 -161 b 354 24 332 -96 354 -37 l 354 67 b 354 67 354 67 354 67 l 354 207 b 289 272 354 244 325 272 z m 289 707 b 74 707 171 707 185 707 b 0 633 31 707 0 669 b 0 501 0 590 0 546 b 74 435 0 464 31 435 b 289 435 185 435 171 435 b 354 501 325 435 354 464 l 354 633 b 289 707 354 669 325 707 z "},":":{"ha":432,"x_min":0,"x_max":0,"o":"m 281 272 b 74 272 169 272 183 272 b 0 207 31 272 0 244 b 0 67 0 163 0 111 b 74 0 0 31 31 0 b 281 0 183 0 169 0 b 354 67 326 0 354 31 l 354 207 b 281 272 354 244 326 272 z m 281 707 b 74 707 169 707 183 707 b 0 633 31 707 0 669 b 0 501 0 590 0 546 b 74 435 0 464 31 435 b 281 435 183 435 169 435 b 354 501 326 435 354 464 l 354 633 b 281 707 354 669 326 707 z "},"‘":{"ha":381,"x_min":0,"x_max":0,"o":"m 75 494 b 236 494 192 494 118 494 b 303 560 271 494 303 524 l 303 922 b 250 972 303 951 279 972 l 154 972 b 50 897 110 972 75 929 b 0 744 22 856 0 801 l 0 560 b 75 494 0 524 38 494 z "},"’":{"ha":385,"x_min":0,"x_max":0,"o":"m 229 972 b 65 972 118 972 185 972 b 0 907 29 972 0 943 l 0 544 b 53 494 0 515 22 494 l 149 494 b 250 569 192 494 229 538 b 303 722 279 611 303 665 l 303 907 b 229 972 303 943 272 972 z "},"„":{"ha":756,"x_min":0,"x_max":0,"o":"m 229 308 b 65 308 118 308 185 308 b 0 243 29 308 0 279 l 0 -119 b 53 -169 0 -149 22 -169 l 149 -169 b 250 -94 192 -169 229 -126 b 303 58 279 -53 303 1 l 303 243 b 229 308 303 279 272 308 z m 603 308 b 442 308 486 308 560 308 b 375 243 407 308 375 279 l 375 -119 b 428 -169 375 -149 399 -169 l 524 -169 b 628 -94 568 -169 603 -126 b 678 58 656 -53 678 1 l 678 243 b 603 308 678 279 640 308 z "},"‚":{"ha":374,"x_min":0,"x_max":0,"o":"m 229 308 b 65 308 118 308 185 308 b 0 243 29 308 0 279 l 0 -119 b 53 -169 0 -149 22 -169 l 149 -169 b 250 -94 192 -169 229 -126 b 303 58 279 -53 303 1 l 303 243 b 229 308 303 279 272 308 z "},"\"":{"ha":756,"x_min":0,"x_max":0,"o":"m 229 972 b 65 972 118 972 185 972 b 0 907 29 972 0 943 l 0 544 b 53 494 0 515 22 494 l 149 494 b 250 569 192 494 229 538 b 303 722 279 611 303 665 l 303 907 b 229 972 303 943 272 972 z m 603 972 b 442 972 486 972 560 972 b 375 907 407 972 375 943 l 375 544 b 428 494 375 515 399 494 l 524 494 b 628 569 568 494 603 538 b 678 722 656 611 678 665 l 678 907 b 603 972 678 943 640 972 z "},"'":{"ha":375,"x_min":0,"x_max":0,"o":"m 229 972 b 65 972 118 972 185 972 b 0 907 29 972 0 943 l 0 544 b 53 494 0 515 22 494 l 149 494 b 250 569 192 494 229 538 b 303 722 279 611 303 665 l 303 907 b 229 972 303 943 272 972 z "},"b":{"ha":813,"x_min":0,"x_max":0,"o":"m 78 972 b 0 894 39 972 0 933 l 0 500 l 0 65 b 78 0 0 26 39 0 l 106 0 l 171 0 l 499 0 l 499 0 l 538 0 l 538 0 b 775 329 669 0 775 146 b 643 618 775 460 721 564 b 682 750 657 657 682 696 b 499 972 682 867 592 972 z "},"Đ":{"ha":956,"x_min":0,"x_max":0,"o":"m 457 974 l 183 974 b 114 904 144 974 114 943 l 114 740 l 69 740 b 0 672 31 740 0 710 l 0 619 l 0 619 l 0 486 l 0 354 l 0 354 l 0 301 b 69 233 0 264 31 233 l 114 233 l 114 69 b 183 0 114 31 144 0 l 347 0 l 561 0 l 617 0 b 818 154 701 0 764 58 b 894 486 865 240 894 358 b 818 819 894 615 865 733 b 617 974 764 915 701 974 l 457 974 z "},"đ":{"ha":956,"x_min":0,"x_max":0,"o":"m 457 974 l 183 974 b 114 904 144 974 114 943 l 114 740 l 69 740 b 0 672 31 740 0 710 l 0 619 l 0 619 l 0 486 l 0 354 l 0 354 l 0 301 b 69 233 0 264 31 233 l 114 233 l 114 69 b 183 0 114 31 144 0 l 347 0 l 561 0 l 617 0 b 818 154 701 0 764 58 b 894 486 865 240 894 358 b 818 819 894 615 865 733 b 617 974 764 915 701 974 l 457 974 z "}}}
